# 3ds Max Wavefront OBJ Exporter v0.97b - (c)2007 guruware
# 创建的文件:17.05.2021 20:03:07

mtllib magic_engraver.mtl

#
# object Box002
#

v  -33.3333 0.0000 16.6667
v  -16.6667 0.0000 16.6667
v  -33.3333 0.0000 33.3333
v  -16.6667 0.0000 33.3333
v  16.6667 0.0000 16.6667
v  -16.6667 0.0000 50.0000
v  16.6667 0.0000 50.0000
v  50.0000 0.0000 16.6667
v  41.6667 0.0000 25.0000
v  33.3333 0.0000 33.3333
v  -50.0000 0.0000 16.6667
v  -50.0000 0.0000 -16.6667
v  -41.6667 0.0000 -16.6667
v  -37.5000 0.0000 -16.6667
v  -33.3333 0.0000 -16.6667
v  -16.6667 0.0000 -16.6667
v  16.6667 0.0000 -16.6667
v  33.3333 0.0000 -16.6667
v  41.6667 0.0000 -16.6667
v  50.0000 0.0000 -16.6667
v  -33.3333 0.0000 -33.3333
v  -16.6667 0.0000 -41.6667
v  -16.6667 0.0000 -50.0000
v  16.6667 0.0000 -50.0000
v  -16.6667 0.0000 -33.3333
v  16.6667 0.0000 -33.3333
v  33.3333 0.0000 -33.3333
v  -16.6667 3.0000 33.3333
v  -16.6667 3.0000 16.6667
v  -33.3333 3.0000 33.3333
v  33.3333 3.0000 33.3333
v  16.6667 3.0000 16.6667
v  16.6667 3.0000 33.3333
v  -33.3333 3.0000 -16.6667
v  -16.6667 3.0000 -16.6667
v  -33.3333 3.0000 -33.3333
v  33.3333 3.0000 -16.6667
v  33.3333 3.0000 -33.3333
v  16.6667 3.0000 -16.6667
v  -16.6667 3.0000 50.0000
v  -25.0000 3.0000 41.6667
v  -25.0000 0.0000 41.6667
v  16.6667 3.0000 50.0000
v  25.0000 3.0000 41.6667
v  50.0000 3.0000 -16.6667
v  50.0000 3.0000 16.6667
v  41.6667 0.0000 -25.0000
v  41.6667 3.0000 -25.0000
v  -16.6667 3.0000 -50.0000
v  16.6667 3.0000 -50.0000
v  -25.0000 0.0000 -41.6667
v  -25.0000 3.0000 -41.6667
v  -50.0000 3.0000 16.6667
v  -50.0000 3.0000 -16.6667
v  -16.6667 3.0000 41.6667
v  -0.0000 23.1269 33.3334
v  16.6667 3.0000 41.6667
v  -33.3333 3.0000 16.6667
v  -33.3333 23.1274 0.0000
v  -41.6667 3.0000 16.6667
v  41.6667 3.0000 16.6667
v  33.3333 23.1274 0.0000
v  33.3333 3.0000 16.6667
v  41.6667 3.0000 -16.6667
v  -0.0000 23.1274 -33.3333
v  16.6667 3.0000 -41.6667
v  16.6667 3.0000 -33.3333
v  -16.6667 3.0000 -33.3333
v  -16.6667 3.0000 -41.6667
v  -7.4824 30.4755 7.4824
v  7.4824 30.4755 7.4824
v  -0.0000 38.2649 0.0000
v  7.4824 30.4755 -7.4824
v  -7.4824 30.4755 -7.4824
v  -33.3398 23.1290 -0.0000
v  -9.1803 23.1274 0.0000
v  -0.0000 23.1267 33.3334
v  -0.0000 23.1274 9.1803
v  -0.0000 1.5680 15.8144
v  -15.9412 1.6728 -0.0000
v  33.3687 23.1416 0.0000
v  9.1803 23.1274 0.0000
v  16.0897 1.8827 -0.0000
v  -0.0000 23.1274 -9.1803
v  -0.0000 1.5227 -16.1015
v  -41.6667 0.0000 25.0000
v  -37.5000 0.0000 20.8333
v  -37.5000 3.0000 20.8333
v  -41.6667 3.0000 25.0000
v  -20.8333 3.0000 37.5000
v  41.6667 3.0000 25.0000
v  37.5000 3.0000 20.8333
v  20.8333 3.0000 37.5000
v  37.5000 0.0000 -20.8333
v  25.0000 0.0000 -41.6667
v  25.0000 3.0000 -41.6667
v  20.8333 3.0000 -37.5000
v  37.5000 3.0000 -20.8333
v  -20.8333 0.0000 -37.5000
v  -37.5000 0.0000 -20.8333
v  -41.6667 0.0000 -25.0000
v  -20.8333 3.0000 -37.5000
v  -41.6667 3.0000 -25.0000
v  -37.5000 3.0000 -20.8333
v  -41.6667 3.0000 -16.6667
v  -37.5000 3.0000 -16.6667
# 106 vertices

vn 0.0000 -1.0000 -0.0000
vn 0.0000 1.0000 -0.0000
vn -0.3827 0.0000 0.9239
vn -0.7071 0.0000 0.7071
vn 0.3827 0.0000 0.9239
vn 0.7071 0.0000 0.7071
vn 0.9239 0.0000 0.3827
vn 0.9239 0.0000 -0.3827
vn 0.7071 0.0000 -0.7071
vn 0.3827 -0.0000 -0.9239
vn -0.3827 0.0000 -0.9239
vn 0.3827 0.0000 -0.9239
vn -0.7071 0.0000 -0.7071
vn -0.9239 0.0000 -0.3827
vn -0.9239 0.0000 0.3827
vn -0.9239 -0.0000 0.3827
vn -0.7702 0.6378 -0.0000
vn 0.0000 0.6378 0.7702
vn 0.7702 0.6378 -0.0000
vn 0.0000 0.6378 -0.7702
vn 0.0000 0.6928 0.7212
vn 0.7212 0.6928 -0.0000
vn 0.0000 0.6928 -0.7212
vn -0.7212 0.6928 -0.0000
vn -0.2733 0.9619 -0.0000
vn -0.0000 -0.7135 -0.7007
vn 0.0000 0.9619 0.2734
vn -0.9611 0.0078 -0.2760
vn -0.7007 -0.7135 -0.0000
vn 1.0000 0.0000 0.0000
vn -1.0000 0.0000 -0.0000
vn 0.7007 -0.7135 -0.0000
vn 0.0000 0.0000 -1.0000
vn -0.0000 -0.7135 0.7007
vn 0.2726 0.9621 -0.0000
vn 0.0004 -0.7134 0.7007
vn -0.0000 0.0000 -1.0000
vn 0.0000 -0.0000 1.0000
vn 0.0004 -0.7134 -0.7007
vn 0.0000 0.9619 -0.2734
vn 0.7007 -0.7135 0.0000
vn 1.0000 -0.0000 0.0000
vn -0.7007 -0.7135 0.0000
vn -0.7071 -0.0000 0.7071
vn 0.7071 -0.0000 -0.7071
vn 0.0000 -0.2251 -0.9743
vn 0.0000 -0.2251 0.9743
vn 0.9743 -0.2251 -0.0000
vn 0.0000 0.0000 -0.0000
vn 0.7007 0.7135 -0.0000
vn 0.9599 -0.0078 -0.2801
vn 0.9610 -0.0076 0.2765
vn -0.9999 0.0082 -0.0101
vn -0.9743 -0.2251 -0.0000
vn -0.0000 -0.0000 1.0000
# 55 vertex normals

vt 0.8330 0.3335 0.0005
vt 0.6665 0.3335 0.0005
vt 0.8330 0.1670 0.0005
vt 0.6665 0.1670 0.0005
vt 0.3335 0.3335 0.0005
vt 0.6665 0.0005 0.0005
vt 0.3335 0.0005 0.0005
vt 0.0005 0.3335 0.0005
vt 0.0837 0.2502 0.0005
vt 0.1670 0.1670 0.0005
vt 0.9995 0.3335 0.0005
vt 0.9995 0.6665 0.0005
vt 0.9163 0.6665 0.0005
vt 0.8746 0.6665 0.0005
vt 0.8330 0.6665 0.0005
vt 0.6665 0.6665 0.0005
vt 0.3335 0.6665 0.0005
vt 0.1670 0.6665 0.0005
vt 0.0837 0.6665 0.0005
vt 0.0005 0.6665 0.0005
vt 0.8330 0.8330 0.0005
vt 0.6665 0.9163 0.0005
vt 0.6665 0.9995 0.0005
vt 0.3335 0.9995 0.0005
vt 0.6665 0.8330 0.0005
vt 0.3335 0.8330 0.0005
vt 0.1670 0.8330 0.0005
vt 0.3335 0.1670 0.0801
vt 0.3335 0.3335 0.0801
vt 0.1670 0.1670 0.0801
vt 0.8330 0.1670 0.0801
vt 0.6665 0.3335 0.0801
vt 0.6665 0.1670 0.0801
vt 0.1670 0.6665 0.0801
vt 0.3335 0.6665 0.0801
vt 0.1670 0.8330 0.0801
vt 0.8330 0.6665 0.0801
vt 0.8330 0.8330 0.0801
vt 0.6665 0.6665 0.0801
vt 0.9995 0.0801 0.3335
vt 0.9163 0.0801 0.2502
vt 0.9163 0.0005 0.2502
vt 0.9995 0.0005 0.3335
vt 0.6665 0.0801 0.0005
vt 0.3335 0.0801 0.0005
vt 0.8330 0.0005 0.1670
vt 0.7498 0.0801 0.0837
vt 0.3335 0.0005 0.9995
vt 0.6665 0.0005 0.9995
vt 0.6665 0.0801 0.9995
vt 0.3335 0.0801 0.9995
vt 0.7498 0.0005 0.9163
vt 0.7498 0.0801 0.9163
vt 0.1336 0.1163 0.9995
vt 0.1336 -0.2485 0.9995
vt 1.0148 0.4812 0.0005
vt 0.1336 0.4812 0.9995
vt 0.1336 1.2109 0.9995
vt -0.2739 0.0817 0.9995
vt 1.2425 0.0817 0.9995
vt 0.4998 1.0549 0.0005
vt 0.5023 0.0817 0.0005
vt -0.2739 0.0817 0.0005
vt 0.4998 1.0549 0.9995
vt 0.9160 0.0817 0.0005
vt 1.2425 0.0817 0.0005
vt 0.5000 0.1670 0.6142
vt 0.5317 0.0817 0.0833
vt 1.2425 0.0817 0.0833
vt 0.4998 1.0549 0.9167
vt 0.1309 0.0817 0.0833
vt -0.2739 0.0817 0.0833
vt 0.1670 0.5000 0.6143
vt 0.9297 0.0817 0.9136
vt 1.2425 0.0817 0.9136
vt 0.4998 1.0549 0.0864
vt 0.5160 0.0817 0.9136
vt -0.2739 0.0817 0.9136
vt -0.2739 0.0817 0.9167
vt 1.2425 0.0817 0.9167
vt 0.4998 1.0549 0.0833
vt 0.1324 0.4845 0.0005
vt 0.1324 1.2089 0.0005
vt 1.0071 0.4845 0.9995
vt 0.1324 0.1223 0.0005
vt 0.1324 -0.2399 0.0005
vt 0.8330 0.5000 0.6143
vt 0.5000 0.8330 0.6143
vt 0.1323 0.8473 0.0005
vt 0.1323 1.2089 0.0005
vt 1.0055 0.4858 0.9995
vt 0.1323 0.4858 0.0005
vt 0.1323 -0.2373 0.0005
vt 1.2425 0.0817 0.0864
vt -0.2739 0.0817 0.0864
vt 0.4998 1.0549 0.9136
vt 0.5355 0.0817 0.0005
vt 0.1155 0.0817 0.0005
vt 0.4253 0.4253 0.8093
vt 0.5747 0.4253 0.8093
vt 0.5000 0.5000 0.9995
vt 0.5747 0.5747 0.8093
vt 0.4253 0.5747 0.8093
vt 0.1669 0.5000 0.6143
vt 0.5917 0.5000 0.6143
vt 0.8331 0.5000 0.6143
vt 0.5000 0.4083 0.6143
vt 0.4083 0.6143 0.5000
vt 0.1670 0.6142 0.5000
vt 0.3420 0.0421 0.5000
vt 0.5917 0.6143 0.5000
vt 0.6580 0.0421 0.5000
vt 0.8330 0.6142 0.5000
vt 0.6593 0.0449 0.5000
vt 0.8331 0.6143 0.5000
vt 0.8334 0.5000 0.6146
vt 0.4083 0.5000 0.6143
vt 0.1666 0.5000 0.6146
vt 0.1666 0.6146 0.5000
vt 0.3393 0.0505 0.5000
vt 0.6607 0.0505 0.5000
vt 0.8334 0.6146 0.5000
vt 0.5000 0.5917 0.6143
vt 0.1670 0.6143 0.5000
vt 0.3391 0.0409 0.5000
vt 0.6609 0.0409 0.5000
vt 0.8330 0.6143 0.5000
vt 0.7498 0.0837 0.0005
vt 0.9163 0.2502 0.0005
vt 0.8746 0.2919 0.0005
vt 0.1254 0.2919 0.0801
vt 0.0837 0.2502 0.0801
vt 0.1670 0.3335 0.0801
vt 0.2502 0.0837 0.0801
vt 0.2919 0.1254 0.0801
vt 0.7498 0.0005 0.0837
vt 0.8330 0.0801 0.1670
vt 0.9163 0.2502 0.0801
vt 0.8746 0.2919 0.0801
vt 0.8330 0.3335 0.0801
vt 0.7081 0.1254 0.0801
vt 0.7498 0.0837 0.0801
vt 0.0837 0.7498 0.0005
vt 0.1254 0.7081 0.0005
vt 0.2502 0.9163 0.0005
vt 0.7498 0.9163 0.0801
vt 0.7081 0.8746 0.0801
vt 0.6665 0.8330 0.0801
vt 0.8746 0.7081 0.0801
vt 0.9163 0.7498 0.0801
vt 0.9163 0.0005 0.7498
vt 0.9163 0.0801 0.7498
vt 0.8330 0.0801 0.8330
vt 0.8330 0.0005 0.8330
vt 0.7498 0.9163 0.0005
vt 0.7081 0.8746 0.0005
vt 0.8746 0.7081 0.0005
vt 0.9163 0.7498 0.0005
vt 0.3335 0.8330 0.0801
vt 0.2919 0.8746 0.0801
vt 0.2502 0.9163 0.0801
vt 0.0837 0.7498 0.0801
vt 0.1254 0.7081 0.0801
vt 0.0837 0.3335 0.0801
vt 0.3335 0.0837 0.0801
vt 0.6665 0.0837 0.0801
vt 0.9163 0.3335 0.0801
vt 0.9995 0.0005 0.6665
vt 0.9995 0.0801 0.6665
vt 0.0837 0.6665 0.0801
vt 0.3335 0.9163 0.0801
vt 0.6665 0.9163 0.0801
vt 0.9163 0.6665 0.0801
vt 0.0005 0.3335 0.0801
vt 0.3335 0.0005 0.0801
vt 0.6665 0.0005 0.0801
vt 0.9995 0.3335 0.0801
vt 0.9995 0.6665 0.0801
vt 0.6665 0.9995 0.0801
vt 0.3335 0.9995 0.0801
vt 0.0005 0.6665 0.0801
vt 0.1254 0.6665 0.0801
vt 0.8294 0.0817 0.9167
vt 0.6540 0.0817 0.9167
vt 0.4786 0.0817 0.9167
# 185 texture coords

g Box002
usemtl 15___Default5
s 2
f 1/1/1 2/2/1 3/3/1 
f 4/4/1 2/2/1 5/5/1 
f 6/6/1 4/4/1 5/5/1 
f 6/6/1 5/5/1 7/7/1 
f 5/5/1 8/8/1 9/9/1 
f 5/5/1 9/9/1 10/10/1 
f 7/7/1 5/5/1 10/10/1 
f 11/11/1 12/12/1 13/13/1 
f 11/11/1 13/13/1 14/14/1 
f 11/11/1 14/14/1 15/15/1 
f 11/11/1 15/15/1 16/16/1 
f 16/16/1 2/2/1 1/1/1 
f 11/11/1 16/16/1 1/1/1 
f 2/2/1 16/16/1 17/17/1 
f 17/17/1 5/5/1 2/2/1 
f 5/5/1 17/17/1 18/18/1 
f 5/5/1 18/18/1 19/19/1 
f 5/5/1 19/19/1 20/20/1 
f 5/5/1 20/20/1 8/8/1 
f 21/21/1 16/16/1 15/15/1 
f 22/22/1 23/23/1 24/24/1 
f 25/25/1 22/22/1 24/24/1 
f 16/16/1 25/25/1 24/24/1 
f 16/16/1 24/24/1 26/26/1 
f 16/16/1 26/26/1 17/17/1 
f 26/26/1 27/27/1 17/17/1 
usemtl 01___Default
s 4
f 28/28/2 29/29/2 30/30/2 
usemtl 01___Defaultw
f 31/31/2 32/32/2 33/33/2 
usemtl 01___Defaults
f 34/34/2 35/35/2 36/36/2 
usemtl 01___Defaultd
f 37/37/2 38/38/2 39/39/2 
usemtl 15___Default5
s 72
f 40/40/3 41/41/4 42/42/4 
f 42/42/4 6/43/3 40/40/3 
s 8
f 6/7/3 7/6/5 43/44/5 
f 43/44/5 40/45/3 6/7/3 
s 24
f 7/6/5 10/46/6 44/47/6 
f 44/47/6 43/44/5 7/6/5 
s 16
f 8/48/7 20/49/8 45/50/8 
f 45/50/8 46/51/7 8/48/7 
s 48
f 47/52/9 48/53/9 45/50/8 
f 45/50/8 20/49/8 47/52/9 
s 32
f 24/48/10 23/49/11 49/50/11 
f 49/50/11 50/51/12 24/48/10 
s 96
f 23/49/11 51/52/13 52/53/13 
f 52/53/13 49/50/11 23/49/11 
s 64
f 12/7/14 11/6/15 53/44/16 
f 53/44/16 54/45/14 12/7/14 
usemtl Material__76
s off
f 55/54/17 40/55/17 56/56/17 
f 28/57/17 55/54/17 56/56/17 
f 29/58/17 28/57/17 56/56/17 
usemtl Material__80
f 40/59/18 43/60/18 56/61/18 
usemtl Material__74
f 33/62/19 32/63/19 56/64/19 
f 57/65/19 33/62/19 56/64/19 
f 43/66/19 57/65/19 56/64/19 
usemtl 15___Default
f 32/32/20 29/29/20 56/67/20 
usemtl Material__76
f 58/68/18 29/69/18 59/70/18 
f 60/71/18 58/68/18 59/70/18 
f 53/72/18 60/71/18 59/70/18 
usemtl 15___Default
f 29/29/19 35/35/19 59/73/19 
usemtl Material__77
f 54/72/17 53/69/17 59/70/17 
usemtl Material__74
f 61/74/18 46/75/18 62/76/18 
f 63/77/18 61/74/18 62/76/18 
f 32/78/18 63/77/18 62/76/18 
usemtl Material__79
f 46/79/19 45/80/19 62/81/19 
usemtl Material__73
f 37/82/20 39/83/20 62/84/20 
f 64/85/20 37/82/20 62/84/20 
f 45/86/20 64/85/20 62/84/20 
usemtl 15___Default
f 39/39/17 32/32/17 62/87/17 
f 35/35/18 39/39/18 65/88/18 
usemtl Material__73
f 66/89/19 50/90/19 65/91/19 
f 67/92/19 66/89/19 65/91/19 
f 39/93/19 67/92/19 65/91/19 
usemtl Material__78
f 50/94/20 49/95/20 65/96/20 
usemtl Material__72
f 68/97/17 35/66/17 65/64/17 
f 69/98/17 68/97/17 65/64/17 
f 49/63/17 69/98/17 65/64/17 
usemtl 16___Default
f 70/99/21 71/100/21 72/101/21 
f 71/100/22 73/102/22 72/101/22 
f 73/102/23 74/103/23 72/101/23 
f 74/103/24 70/99/24 72/101/24 
usemtl 18___Default
f 70/99/25 74/103/25 75/104/25 
f 74/102/26 76/105/26 75/106/26 
f 71/100/27 70/99/27 77/67/27 
f 77/67/28 56/67/28 71/100/28 
f 70/100/29 78/107/29 56/67/29 
f 78/108/30 77/109/30 79/110/30 
f 78/111/31 79/112/31 56/113/31 
f 78/107/32 71/99/32 77/67/32 
f 76/111/33 80/114/33 75/115/33 
f 76/105/34 70/100/34 75/106/34 
f 73/102/35 71/100/35 81/116/35 
f 71/99/36 82/117/36 81/118/36 
f 82/108/37 81/119/37 83/120/37 
f 82/111/38 83/121/38 81/122/38 
f 82/117/39 73/103/39 81/118/39 
f 74/103/40 73/102/40 65/88/40 
f 73/103/41 84/123/41 65/88/41 
f 84/108/31 65/124/31 85/125/31 
f 84/111/42 85/126/42 65/127/42 
f 84/123/43 74/102/43 65/88/43 
usemtl 15___Default5
s 2
f 4/4/1 42/128/1 3/3/1 
f 86/129/1 87/130/1 1/1/1 
f 1/1/1 3/3/1 86/129/1 
usemtl 18___Default
s 4
f 88/131/2 89/132/2 30/30/2 
f 30/30/2 58/133/2 88/131/2 
f 30/30/2 41/134/2 90/135/2 
f 90/135/2 28/28/2 30/30/2 
usemtl 15___Default5
s 72
f 89/47/44 86/136/44 3/46/44 
f 3/46/44 30/137/4 89/47/44 
s 2
f 2/2/1 4/4/1 3/3/1 
usemtl 01___Default
s 4
f 29/29/2 58/133/2 30/30/2 
usemtl 18___Default
f 31/31/2 91/138/2 92/139/2 
f 92/139/2 63/140/2 31/31/2 
f 31/31/2 33/33/2 93/141/2 
f 93/141/2 44/142/2 31/31/2 
usemtl 01___Defaultw
f 31/31/2 63/140/2 32/32/2 
usemtl 15___Default5
s 2
f 27/27/1 47/143/1 94/144/1 
f 94/144/1 18/18/1 27/27/1 
f 26/26/1 95/145/1 27/27/1 
usemtl 18___Default
s 4
f 38/38/2 96/146/2 97/147/2 
f 97/147/2 67/148/2 38/38/2 
f 38/38/2 37/37/2 98/149/2 
f 98/149/2 48/150/2 38/38/2 
usemtl 15___Default5
s 48
f 95/151/45 96/152/45 38/153/45 
f 38/153/45 27/154/9 95/151/45 
s 2
f 27/27/1 18/18/1 17/17/1 
usemtl 01___Defaultd
s 4
f 38/38/2 67/148/2 39/39/2 
usemtl 15___Default5
s 2
f 21/21/1 51/155/1 99/156/1 
f 99/156/1 25/25/1 21/21/1 
f 21/21/1 15/15/1 100/157/1 
f 100/157/1 101/158/1 21/21/1 
usemtl 18___Default
s 4
f 36/36/2 68/159/2 102/160/2 
f 102/160/2 52/161/2 36/36/2 
f 36/36/2 103/162/2 104/163/2 
f 104/163/2 34/34/2 36/36/2 
usemtl 15___Default5
s 96
f 101/151/13 103/152/13 36/153/13 
f 36/153/13 21/154/13 101/151/13 
s 2
f 21/21/1 25/25/1 16/16/1 
usemtl 01___Defaults
s 4
f 35/35/2 68/159/2 36/36/2 
usemtl 15___Default5
s 72
f 53/44/16 11/6/15 86/136/44 
f 86/136/44 89/47/44 53/44/16 
s 2
f 11/11/1 1/1/1 87/130/1 
f 87/130/1 86/129/1 11/11/1 
s 4
f 58/133/2 60/164/2 88/131/2 
s 72
f 30/137/4 3/46/44 42/42/4 
f 42/42/4 41/41/4 30/137/4 
s 2
f 4/4/1 6/6/1 42/128/1 
usemtl 16___Default
s 4
f 41/134/2 55/165/2 90/135/2 
usemtl 15___Default5
s 24
f 10/46/6 9/42/6 91/41/6 
f 10/46/6 91/41/6 31/137/6 
f 10/46/6 31/137/6 44/47/6 
f 8/43/7 46/40/7 91/41/6 
f 91/41/6 9/42/6 8/43/7 
s 4
f 33/33/2 57/166/2 93/141/2 
usemtl 16___Default
f 91/138/2 61/167/2 92/139/2 
usemtl 15___Default5
s 48
f 27/154/9 38/153/45 48/53/9 
f 48/53/9 47/52/9 27/154/9 
f 24/168/10 50/169/12 96/152/45 
f 96/152/45 95/151/45 24/168/10 
s 96
f 21/154/13 36/153/13 52/53/13 
f 52/53/13 51/52/13 21/154/13 
f 101/151/13 12/168/14 54/169/14 
f 54/169/14 103/152/13 101/151/13 
s 2
f 14/14/1 13/13/1 100/157/1 
f 100/157/1 15/15/1 14/14/1 
usemtl 16___Default
s 4
f 103/162/2 105/170/2 104/163/2 
usemtl 15___Default5
s 2
f 51/155/1 22/22/1 99/156/1 
s 4
f 68/159/2 69/171/2 102/160/2 
s 2
f 26/26/1 24/24/1 95/145/1 
usemtl 16___Default
s 4
f 96/146/2 66/172/2 97/147/2 
usemtl 15___Default5
s 2
f 47/143/1 19/19/1 94/144/1 
s 4
f 37/37/2 64/173/2 98/149/2 
usemtl 15___Default
f 60/164/2 53/174/2 89/132/2 
f 41/134/2 40/175/2 55/165/2 
f 57/166/2 43/176/2 44/142/2 
f 91/138/2 46/177/2 61/167/2 
usemtl 15___Default5
s 2
f 47/143/1 20/20/1 19/19/1 
usemtl 15___Default
s 4
f 64/173/2 45/178/2 48/150/2 
f 96/146/2 50/179/2 66/172/2 
usemtl 15___Default5
s 2
f 51/155/1 23/23/1 22/22/1 
usemtl 15___Default
s 4
f 69/171/2 49/180/2 52/161/2 
usemtl 15___Default5
s 2
f 13/13/1 12/12/1 101/158/1 
usemtl 15___Default
s 4
f 103/162/2 54/181/2 105/170/2 
usemtl 16___Default
f 60/164/2 89/132/2 88/131/2 
usemtl 15___Default5
f 55/165/2 28/28/2 90/135/2 
usemtl 16___Default
f 57/166/2 44/142/2 93/141/2 
usemtl 15___Default5
f 61/167/2 63/140/2 92/139/2 
s 2
f 19/19/1 18/18/1 94/144/1 
usemtl 16___Default
s 4
f 64/173/2 48/150/2 98/149/2 
usemtl 15___Default5
f 66/172/2 67/148/2 97/147/2 
s 2
f 22/22/1 25/25/1 99/156/1 
usemtl 16___Default
s 4
f 69/171/2 52/161/2 102/160/2 
usemtl 15___Default5
s 2
f 13/13/1 101/158/1 100/157/1 
s 4
f 104/163/2 105/170/2 106/182/2 
f 106/182/2 34/34/2 104/163/2 
usemtl Material__72
s off
f 105/183/20 54/80/20 59/81/20 
f 106/184/20 105/183/20 59/81/20 
f 34/185/20 106/184/20 59/81/20 
f 34/185/20 59/81/20 35/79/20 
usemtl 18___Default
f 70/100/46 71/99/46 78/107/46 
f 74/102/47 84/123/47 73/103/47 
f 70/99/48 76/105/48 74/102/48 
usemtl 16___Default
f 39/39/2 35/35/2 29/29/2 
f 29/29/2 32/32/2 39/39/2 
usemtl 18___Default
f 65/88/49 85/126/49 65/124/49 
f 74/102/49 65/88/49 65/124/49 
f 65/124/50 74/102/50 84/123/50 
f 74/102/43 65/124/43 84/123/43 
f 74/102/49 84/123/49 74/102/49 
f 74/102/49 74/102/49 76/105/49 
f 70/99/49 76/105/49 70/99/49 
f 70/99/49 78/107/49 70/100/49 
f 70/99/49 70/99/49 70/100/49 
f 70/99/49 70/100/49 56/67/49 
f 70/99/51 56/67/51 77/67/51 
f 77/109/52 71/99/52 56/67/52 
f 56/67/53 79/112/53 77/109/53 
f 81/119/49 73/103/49 81/116/49 
f 81/116/49 83/121/49 81/119/49 
f 71/99/54 73/103/54 82/117/54 
f 70/100/1 74/102/1 73/103/1 
f 73/103/1 71/99/1 70/100/1 
f 76/105/55 75/106/55 80/114/55 
f 76/105/49 80/114/49 76/111/49 
f 76/105/49 76/111/49 70/99/49 
# 224 faces

